<?xml version="1.0" encoding="UTF-8" standalone="no"?>
<svg
   xmlns:dc="http://purl.org/dc/elements/1.1/"
   xmlns:cc="http://creativecommons.org/ns#"
   xmlns:rdf="http://www.w3.org/1999/02/22-rdf-syntax-ns#"
   xmlns:svg="http://www.w3.org/2000/svg"
   xmlns="http://www.w3.org/2000/svg"
   xmlns:sodipodi="http://sodipodi.sourceforge.net/DTD/sodipodi-0.dtd"
   xmlns:inkscape="http://www.inkscape.org/namespaces/inkscape"
   viewBox="0 0 513 512"
   version="1.1"
   id="svg4"
   sodipodi:docname="rainbow-solid.svg"
   width="513"
   height="512"
   inkscape:version="1.0.1 (3bc2e813f5, 2020-09-07)">
  <metadata
     id="metadata10">
    <rdf:RDF>
      <cc:Work
         rdf:about="">
        <dc:format>image/svg+xml</dc:format>
        <dc:type
           rdf:resource="http://purl.org/dc/dcmitype/StillImage" />
        <dc:title></dc:title>
      </cc:Work>
    </rdf:RDF>
  </metadata>
  <defs
     id="defs8" />
  <sodipodi:namedview
     pagecolor="#ffffff"
     bordercolor="#666666"
     borderopacity="1"
     objecttolerance="10"
     gridtolerance="10"
     guidetolerance="10"
     inkscape:pageopacity="0"
     inkscape:pageshadow="2"
     inkscape:window-width="2269"
     inkscape:window-height="1168"
     id="namedview6"
     showgrid="false"
     inkscape:showpageshadow="false"
     inkscape:pagecheckerboard="true"
     inkscape:zoom="1.4355469"
     inkscape:cx="320"
     inkscape:cy="256"
     inkscape:window-x="0"
     inkscape:window-y="0"
     inkscape:window-maximized="0"
     inkscape:current-layer="svg4" />
  <!--!Font Awesome Free 6.6.0 by @fontawesome - https://fontawesome.com License - https://fontawesome.com/license/free Copyright 2024 Fonticons, Inc.-->
  <path
     d="m 257.33532,134.86047 c -103.2226,0 -186.881089,89.90264 -186.881089,200.82963 v 75.31112 c 0,13.88548 -10.439053,25.1037 -23.36013,25.1037 -12.92108,0 -23.360141,-11.21822 -23.360141,-25.1037 V 335.6901 c 0,-138.61951 104.60961,-251.037039 233.60136,-251.037039 128.99176,0 233.60137,112.417529 233.60137,251.037039 v 75.31112 c 0,13.88548 -10.43904,25.1037 -23.36012,25.1037 -12.92109,0 -23.36015,-11.21822 -23.36015,-25.1037 V 335.6901 c 0,-110.92699 -83.65849,-200.82963 -186.8811,-200.82963 z m 0,150.62222 c -25.76914,0 -46.72027,22.51489 -46.72027,50.20741 v 75.31112 c 0,13.88548 -10.43907,25.1037 -23.36014,25.1037 -12.92107,0 -23.36013,-11.21822 -23.36013,-25.1037 V 335.6901 c 0,-55.4635 41.82924,-100.41481 93.44054,-100.41481 51.61131,0 93.44055,44.95131 93.44055,100.41481 v 75.31112 c 0,13.88548 -10.43906,25.1037 -23.36014,25.1037 -12.92107,0 -23.36012,-11.21822 -23.36012,-25.1037 V 335.6901 c 0,-27.69252 -20.95114,-50.20741 -46.72029,-50.20741 z M 140.53463,335.6901 v 75.31112 c 0,13.88548 -10.43906,25.1037 -23.36013,25.1037 -12.92107,0 -23.360133,-11.21822 -23.360133,-25.1037 V 335.6901 c 0,-97.04151 73.219443,-175.72593 163.520953,-175.72593 90.30153,0 163.52096,78.68442 163.52096,175.72593 v 75.31112 c 0,13.88548 -10.43906,25.1037 -23.36013,25.1037 -12.92108,0 -23.36014,-11.21822 -23.36014,-25.1037 V 335.6901 c 0,-69.34898 -52.26831,-125.51852 -116.80069,-125.51852 -64.53237,0 -116.80069,56.16954 -116.80069,125.51852 z"
     id="path2"
     style="fill:#0d47a1;fill-opacity:1;stroke-width:0.756759" />
</svg>
